<?xml version="1.0" encoding="utf-8"?>
<svg xml:space="preserve" viewBox="0 0 100 100" y="0" x="0" xmlns="http://www.w3.org/2000/svg" id="圖層_1" version="1.1" style="height: 100%; width: 100%; background: rgba(241, 242, 243, 0); shape-rendering: auto;" width="207px" height="207px"><g class="ldl-scale" style="transform-origin: 50% 50%; transform: rotate(0deg) scale(0.58, 0.58);"><g class="ldl-ani"><g class="ldl-layer"><g class="ldl-ani" style="transform-origin: 50px 50px; transform: matrix(1, 0, 0, 1, 0, 0); animation: 1.11111s linear -1.04444s infinite normal forwards running bounce-cfbd498b-df2a-406b-a85e-dcf3abaa0b55;"><circle stroke-miterlimit="10" stroke-width="8" stroke="#000" r="38" cy="50" cx="50" style="fill: rgb(55, 220, 104); stroke: rgb(55, 220, 104);"></circle></g></g><g class="ldl-layer"><g class="ldl-ani"><g><g class="ldl-layer"><g class="ldl-ani" style="transform-origin: 50px 50px; transform: matrix(1, 0, 0, 1, 0, 0); animation: 1.11111s linear -1.07778s infinite normal forwards running bounce-cfbd498b-df2a-406b-a85e-dcf3abaa0b55;"><path fill="#fff" d="M54.9 28.4h-8.7c-1 0-1.8.8-1.8 1.8v7.6c0 1 .8 1.8 1.8 1.8h8.7c1 0 1.8-.8 1.8-1.8v-7.6c0-1-.8-1.8-1.8-1.8z" style="fill: rgb(222, 234, 56);"></path></g></g><g class="ldl-layer"><g class="ldl-ani" style="transform-origin: 50px 50px; transform: matrix(1, 0, 0, 1, 0, 0); animation: 1.11111s linear -1.11111s infinite normal forwards running bounce-cfbd498b-df2a-406b-a85e-dcf3abaa0b55;"><path fill="#fff" d="M56.7 63V45.4c0-1-.8-1.8-1.8-1.8H42.7c-1 0-1.8.8-1.8 1.8V50c0 1 .8 1.8 1.8 1.8h2.9V63h-2.9c-1 0-1.8.8-1.8 1.8v5.1c0 1 .8 1.8 1.8 1.8h16.8c1 0 1.8-.8 1.8-1.8v-5.1c0-1-.8-1.8-1.8-1.8h-2.8z" style="fill: rgb(222, 234, 56);"></path></g></g></g></g></g><metadata xmlns:d="https://loading.io/stock/"><d:name>information</d:name><d:tags>help,guide,indication,note,hint,tip,information,web application</d:tags><d:license>free</d:license><d:slug>bt460y</d:slug></metadata></g></g><style id="bounce-cfbd498b-df2a-406b-a85e-dcf3abaa0b55" data-anikit="">@keyframes bounce-cfbd498b-df2a-406b-a85e-dcf3abaa0b55
{
  0% {
    animation-timing-function: cubic-bezier(0.1361,0.2514,0.2175,0.8786);
    transform: translate(0,0px) scaleY(1);
  }
  37% {
    animation-timing-function: cubic-bezier(0.7674,0.1844,0.8382,0.7157);
    transform: translate(0,-39.96px) scaleY(1);
  }
  72% {
    animation-timing-function: cubic-bezier(0.1118,0.2149,0.2172,0.941);
    transform: translate(0,0px) scaleY(1);
  }
  87% {
    animation-timing-function: cubic-bezier(0.7494,0.2259,0.8209,0.6963);
    transform: translate(0,19.900000000000002px) scaleY(0.602);
  }
  100% {
    transform: translate(0,0px) scaleY(1);
  }
}</style><!-- [ldio] generated by https://loading.io/ --></svg>